<svg width="32" height="32" viewBox="0 0 32 32" fill="none" xmlns="http://www.w3.org/2000/svg">
<g id="vuesax/linear/apple">
<g id="apple">
<path id="Vector" fill-rule="evenodd" clip-rule="evenodd" d="M20.5334 3.3335C20.8001 4.80016 20.1334 6.26683 19.3334 7.3335C18.5334 8.40016 17.0667 9.3335 15.6001 9.20016C15.3334 7.7335 16.0001 6.40016 16.8001 5.3335C17.7334 4.26683 19.2001 3.46683 20.5334 3.3335ZM24.8001 25.8668C25.4667 24.8002 25.8667 24.1335 26.4001 22.9335C22.2667 21.3335 21.6001 15.4668 25.7334 13.3335C24.5334 11.7335 22.8001 10.9335 21.0667 10.9335C19.8667 10.9335 19.0667 11.2002 18.2667 11.4668C17.6001 11.7335 17.0667 11.8668 16.4001 11.8668C15.6001 11.8668 15.0667 11.6002 14.2667 11.3335C13.4667 11.0668 12.6667 10.8002 11.7334 10.8002C9.86672 10.8002 7.86672 11.8668 6.66672 13.8668C4.93339 16.5335 5.20006 21.7335 8.00006 26.0002C9.20006 27.6002 10.5334 29.3335 12.2667 29.3335C13.0667 29.3335 13.4667 29.0668 14.0001 28.9335C14.6667 28.6668 15.3334 28.4002 16.4001 28.4002C17.6001 28.4002 18.1334 28.6668 18.8001 28.9335C19.3334 29.2002 19.7334 29.3335 20.5334 29.3335C22.4001 29.3335 23.7334 27.3335 24.8001 25.8668Z" stroke="#1859E7" stroke-width="1.5" stroke-miterlimit="10" stroke-linecap="round" stroke-linejoin="round"/>
</g>
</g>
</svg>
