<svg width="32" height="32" viewBox="0 0 32 32" fill="none" xmlns="http://www.w3.org/2000/svg">
<g id="calendar-event">
<path id="Vector" d="M21.333 4V9.33333M10.6663 4V9.33333M5.33301 14.6667H26.6663M5.33301 9.33333C5.33301 8.62609 5.61396 7.94781 6.11406 7.44772C6.61415 6.94762 7.29243 6.66667 7.99967 6.66667H23.9997C24.7069 6.66667 25.3852 6.94762 25.8853 7.44772C26.3854 7.94781 26.6663 8.62609 26.6663 9.33333V25.3333C26.6663 26.0406 26.3854 26.7189 25.8853 27.219C25.3852 27.719 24.7069 28 23.9997 28H7.99967C7.29243 28 6.61415 27.719 6.11406 27.219C5.61396 26.7189 5.33301 26.0406 5.33301 25.3333V9.33333ZM10.6663 20H13.333V22.6667H10.6663V20Z" stroke="#1859E7" stroke-width="2" stroke-linecap="round" stroke-linejoin="round"/>
</g>
</svg>
