<svg width="32" height="32" viewBox="0 0 32 32" fill="none" xmlns="http://www.w3.org/2000/svg">
<g id="clock-play">
<path id="Vector" d="M15.9999 9.33331V16L18.6666 18.6666M17.3559 27.924C14.8464 28.2092 12.3109 27.6954 10.1104 26.4556C7.90997 25.2159 6.15678 23.3134 5.10053 21.0192C4.04428 18.7251 3.73882 16.1561 4.22765 13.6782C4.71648 11.2003 5.97469 8.93978 7.82308 7.21862C9.67147 5.49745 12.0158 4.40337 14.5222 4.09218C17.0286 3.78099 19.5693 4.26857 21.7825 5.48547C23.9957 6.70237 25.7685 8.58655 26.8484 10.8697C27.9284 13.1528 28.2604 15.7185 27.7972 18.2013M22.6666 29.3333L29.3333 25.3333L22.6666 21.3333V29.3333Z" stroke="#1859E7" stroke-width="2" stroke-linecap="round" stroke-linejoin="round"/>
</g>
</svg>
