<svg width="33" height="32" viewBox="0 0 33 32" fill="none" xmlns="http://www.w3.org/2000/svg">
<path d="M16.0208 29.3332C8.66895 29.3332 2.6875 23.3517 2.6875 15.9998C2.6875 8.64795 8.66895 2.6665 16.0208 2.6665C23.3727 2.6665 29.3542 8.64795 29.3542 15.9998C29.3542 18.161 28.8197 20.3129 27.8075 22.2259C27.6579 22.5088 27.3078 22.6178 27.0237 22.4671C26.7408 22.3175 26.633 21.9662 26.7826 21.6833C27.7194 19.9129 28.1947 18.001 28.1947 15.9998C28.1947 9.28679 22.7339 3.82592 16.0208 3.82592C9.30779 3.82592 3.84692 9.28679 3.84692 15.9998C3.84692 22.7129 9.30779 28.1738 16.0208 28.1738C18.022 28.1738 19.9339 27.6984 21.7043 26.7616C21.9895 26.6109 22.3385 26.7198 22.4881 27.0027C22.6376 27.2856 22.5298 27.6369 22.2469 27.7865C20.3339 28.7987 18.182 29.3332 16.0208 29.3332Z" fill="#1859E7"/>
<path d="M16.0221 2.66634C23.374 2.66634 29.3555 8.64779 29.3555 15.9997C29.3555 23.3516 23.374 29.333 16.0221 29.333C8.67025 29.333 2.6888 23.3516 2.6888 15.9997C2.6888 13.8385 3.22329 11.6866 4.23547 9.77358C4.38503 9.49069 4.73518 9.3817 5.01924 9.53243C5.30213 9.68199 5.40996 10.0333 5.2604 10.3162C4.32358 12.0866 3.84822 13.9985 3.84822 15.9997C3.84822 22.7127 9.30909 28.1736 16.0221 28.1736C22.7352 28.1736 28.196 22.7127 28.196 15.9997C28.196 9.28663 22.7352 3.82576 16.0221 3.82576C14.021 3.82576 12.1091 4.30112 10.3387 5.23793C10.0534 5.38866 9.70445 5.27967 9.55489 4.99677C9.40532 4.71388 9.51315 4.36257 9.79605 4.21301C11.7091 3.20083 13.861 2.66634 16.0221 2.66634Z" fill="#1859E7"/>
<path d="M16.0206 29.3332C11.7945 29.3332 8.48438 23.4769 8.48438 15.9998C8.48438 8.52274 11.7945 2.6665 16.0206 2.6665C20.2467 2.6665 23.5568 8.52274 23.5568 15.9998C23.5568 17.223 23.4594 18.4555 23.267 19.6648C23.2171 19.9813 22.9226 20.2004 22.6038 20.1471C22.2873 20.0972 22.0716 19.8004 22.1215 19.4839C22.3047 18.3338 22.3974 17.1616 22.3974 15.9998C22.3974 9.40158 19.4768 3.82592 16.0206 3.82592C12.5644 3.82592 9.6438 9.40158 9.6438 15.9998C9.6438 22.5981 12.5644 28.1738 16.0206 28.1738C17.7679 28.1738 19.0745 26.8045 19.8629 25.6567C20.045 25.3923 20.4055 25.3262 20.6687 25.5071C20.9331 25.688 20.9992 26.0497 20.8183 26.3129C19.4618 28.2885 17.8026 29.3332 16.0206 29.3332Z" fill="#1859E7"/>
<path d="M16.0185 2.66634C20.2445 2.66634 23.5547 8.52257 23.5547 15.9997C23.5547 23.4768 20.2445 29.333 16.0185 29.333C11.7924 29.333 8.48222 23.4768 8.48222 15.9997C8.48222 14.7765 8.57962 13.544 8.77208 12.3347C8.82193 12.0182 9.11643 11.7991 9.43527 11.8524C9.75179 11.9023 9.96744 12.1991 9.91759 12.5156C9.7344 13.6658 9.64164 14.8379 9.64164 15.9997C9.64164 22.5979 12.5622 28.1736 16.0185 28.1736C19.4747 28.1736 22.3953 22.5979 22.3953 15.9997C22.3953 9.40141 19.4747 3.82576 16.0185 3.82576C14.2712 3.82576 12.9645 5.19503 12.1761 6.34286C11.9941 6.60721 11.6335 6.6733 11.3703 6.49243C11.106 6.31156 11.0399 5.94982 11.2208 5.68663C12.5773 3.71098 14.2364 2.66634 16.0185 2.66634Z" fill="#1859E7"/>
<path d="M16.0211 29.3332C15.7011 29.3332 15.4414 29.0735 15.4414 28.7535V3.24621C15.4414 2.92621 15.7011 2.6665 16.0211 2.6665C16.3411 2.6665 16.6008 2.92621 16.6008 3.24621V28.7535C16.6008 29.0735 16.3411 29.3332 16.0211 29.3332Z" fill="#1859E7"/>
<path d="M28.7745 16.5793H3.26721C2.94721 16.5793 2.6875 16.3196 2.6875 15.9996C2.6875 15.6796 2.94721 15.4199 3.26721 15.4199H28.7745C29.0945 15.4199 29.3542 15.6796 29.3542 15.9996C29.3542 16.3196 29.0945 16.5793 28.7745 16.5793Z" fill="#1859E7"/>
<path d="M26.4571 9.6228H5.58752C5.26752 9.6228 5.00781 9.36309 5.00781 9.04309C5.00781 8.72309 5.26752 8.46338 5.58752 8.46338H26.4571C26.7771 8.46338 27.0368 8.72309 27.0368 9.04309C27.0368 9.36309 26.7771 9.6228 26.4571 9.6228Z" fill="#1859E7"/>
<path d="M26.1895 23.5359H5.85508C5.38739 23.5359 5.00781 23.2762 5.00781 22.9562C5.00781 22.6362 5.38739 22.3765 5.85508 22.3765H26.1895C26.6572 22.3765 27.0368 22.6362 27.0368 22.9562C27.0368 23.2762 26.6572 23.5359 26.1895 23.5359Z" fill="#1859E7"/>
</svg>
