<svg width="33" height="32" viewBox="0 0 33 32" fill="none" xmlns="http://www.w3.org/2000/svg">
<g id="layout-grid-add">
<path id="Vector" d="M18.6849 22.6667H26.6849M22.6849 18.6667V26.6667M5.35156 6.66668C5.35156 6.31305 5.49204 5.97392 5.74209 5.72387C5.99214 5.47382 6.33127 5.33334 6.6849 5.33334H12.0182C12.3719 5.33334 12.711 5.47382 12.961 5.72387C13.2111 5.97392 13.3516 6.31305 13.3516 6.66668V12C13.3516 12.3536 13.2111 12.6928 12.961 12.9428C12.711 13.1929 12.3719 13.3333 12.0182 13.3333H6.6849C6.33127 13.3333 5.99214 13.1929 5.74209 12.9428C5.49204 12.6928 5.35156 12.3536 5.35156 12V6.66668ZM18.6849 6.66668C18.6849 6.31305 18.8254 5.97392 19.0754 5.72387C19.3255 5.47382 19.6646 5.33334 20.0182 5.33334H25.3516C25.7052 5.33334 26.0443 5.47382 26.2944 5.72387C26.5444 5.97392 26.6849 6.31305 26.6849 6.66668V12C26.6849 12.3536 26.5444 12.6928 26.2944 12.9428C26.0443 13.1929 25.7052 13.3333 25.3516 13.3333H20.0182C19.6646 13.3333 19.3255 13.1929 19.0754 12.9428C18.8254 12.6928 18.6849 12.3536 18.6849 12V6.66668ZM5.35156 20C5.35156 19.6464 5.49204 19.3073 5.74209 19.0572C5.99214 18.8072 6.33127 18.6667 6.6849 18.6667H12.0182C12.3719 18.6667 12.711 18.8072 12.961 19.0572C13.2111 19.3073 13.3516 19.6464 13.3516 20V25.3333C13.3516 25.687 13.2111 26.0261 12.961 26.2762C12.711 26.5262 12.3719 26.6667 12.0182 26.6667H6.6849C6.33127 26.6667 5.99214 26.5262 5.74209 26.2762C5.49204 26.0261 5.35156 25.687 5.35156 25.3333V20Z" stroke="#1859E7" stroke-width="2" stroke-linecap="round" stroke-linejoin="round"/>
</g>
</svg>
