<svg width="24" height="24" viewBox="0 0 24 24" fill="none" xmlns="http://www.w3.org/2000/svg">
<path fill-rule="evenodd" clip-rule="evenodd" d="M20.9475 3.8287C20.9544 3.6282 20.8813 3.42546 20.7283 3.27241C20.6001 3.14427 20.4372 3.07219 20.2698 3.05617C20.2458 3.05386 20.2216 3.05272 20.1975 3.05273H14.9175C14.5033 3.05273 14.1675 3.38852 14.1675 3.80273C14.1675 4.21695 14.5033 4.55273 14.9175 4.55273H18.3872L13.4702 9.46966C13.1773 9.76255 13.1773 10.2374 13.4702 10.5303C13.763 10.8232 14.2379 10.8232 14.5308 10.5303L19.4475 5.61381V9.08273C19.4475 9.49695 19.7833 9.83273 20.1975 9.83273C20.6117 9.83273 20.9475 9.49695 20.9475 9.08273V3.8287ZM10.5308 13.4697C10.8237 13.7625 10.8237 14.2374 10.5308 14.5303L5.53928 19.5222H9.00803C9.42224 19.5222 9.75803 19.858 9.75803 20.2722C9.75803 20.6864 9.42224 21.0222 9.00803 21.0222H3.76934C3.56373 21.0336 3.35431 20.9608 3.19723 20.8037C3.04386 20.6503 2.9708 20.4471 2.97803 20.2462V14.9922C2.97803 14.578 3.31381 14.2422 3.72803 14.2422C4.14224 14.2422 4.47803 14.578 4.47803 14.9922V18.4621L9.47014 13.4697C9.76303 13.1768 10.2379 13.1768 10.5308 13.4697Z" fill="#1859E7"/>
</svg>
