<svg width="33" height="32" viewBox="0 0 33 32" fill="none" xmlns="http://www.w3.org/2000/svg">
<g id="message-heart">
<path id="Vector" d="M9.6862 10.666H20.3529M9.6862 15.9994H14.3529M12.9929 24.682L9.6862 26.666V22.666H7.01953C5.95867 22.666 4.94125 22.2446 4.1911 21.4945C3.44096 20.7443 3.01953 19.7269 3.01953 18.666V7.99936C3.01953 6.93849 3.44096 5.92108 4.1911 5.17093C4.94125 4.42079 5.95867 3.99936 7.01953 3.99936H23.0195C24.0804 3.99936 25.0978 4.42079 25.848 5.17093C26.5981 5.92108 27.0195 6.93849 27.0195 7.99936V13.3327M23.0195 27.9994L27.4862 23.6207C27.7601 23.3549 27.978 23.0369 28.127 22.6855C28.276 22.3341 28.3531 21.9564 28.3537 21.5748C28.3543 21.1931 28.2784 20.8152 28.1306 20.4633C27.9828 20.1114 27.7659 19.7927 27.4929 19.526C26.9357 18.9812 26.1878 18.6754 25.4085 18.6739C24.6292 18.6724 23.8801 18.9753 23.3209 19.518L23.0222 19.8114L22.7249 19.518C22.1678 18.9735 21.4201 18.668 20.6412 18.6665C19.8622 18.665 19.1134 18.9677 18.5542 19.51C18.2802 19.7757 18.0622 20.0937 17.9131 20.445C17.764 20.7963 17.6868 21.174 17.686 21.5557C17.6853 21.9374 17.761 22.3153 17.9088 22.6672C18.0565 23.0192 18.2732 23.3379 18.5462 23.6047L23.0195 27.9994Z" stroke="#1859E7" stroke-width="2" stroke-linecap="round" stroke-linejoin="round"/>
</g>
</svg>
