<svg width="32.000000" height="32.000000" viewBox="0 0 32 32" fill="none" xmlns="http://www.w3.org/2000/svg" xmlns:xlink="http://www.w3.org/1999/xlink">
	<desc>
			Created with Pixso.
	</desc>
	<defs/>
	<path id="Union" d="M17.116 27.176L14.6711 17.3425L4.82324 14.8704C4.59937 14.8136 4.39917 14.687 4.25171 14.5092C4.104 14.3312 4.01685 14.111 4.0022 13.8802C3.98755 13.6494 4.04663 13.4199 4.17065 13.2249C4.29468 13.0298 4.47729 12.879 4.69214 12.7944L26.5029 4.07825C26.7012 3.99878 26.9185 3.97937 27.1279 4.02234C27.3372 4.06531 27.5293 4.16882 27.6804 4.32007C27.8313 4.47119 27.9348 4.66357 27.9778 4.87305C28.0208 5.08252 28.0012 5.30005 27.9219 5.49866L19.1899 27.3071C19.1055 27.5223 18.9548 27.7051 18.76 27.8292C18.5649 27.9534 18.3357 28.0125 18.1052 27.9978C17.8748 27.9833 17.6548 27.8959 17.4771 27.7482C17.2991 27.6005 17.1729 27.4001 17.116 27.176ZM24.8289 7.17029L18.4324 23.1456L16.5288 15.489L8.84131 13.5593L24.8289 7.17029Z" clip-rule="evenodd" fill="#FFFFFF" fill-opacity="1.000000" fill-rule="evenodd"/>
</svg>
