<svg width="24.000000" height="24.000000" viewBox="0 0 24 24" fill="none" xmlns="http://www.w3.org/2000/svg" xmlns:xlink="http://www.w3.org/1999/xlink">
	<desc>
			Created with Pixso.
	</desc>
	<defs/>
	<path id="Union" d="M9.8623 13.6652L16.9795 20.7214C17.543 21.2803 18.502 20.9912 18.6628 20.2139L21.9751 4.20459C22.1279 3.4657 21.4387 2.8302 20.7146 3.04224L2.71875 8.31384C1.83496 8.57263 1.74121 9.78723 2.57471 10.1786L9.5835 13.4702C9.68677 13.5188 9.78125 13.5847 9.8623 13.6652ZM9.3457 11.7014L10.1992 11.2179L14.3242 8.88086L15.291 8.33325L16.0393 7.90918C16.5471 7.62146 17.0522 8.28845 16.6379 8.69922L11.811 13.4849L17.3806 19.007L20.3374 4.71582L4.40747 9.3822L9.3457 11.7014Z" clip-rule="evenodd" fill="#1859E7" fill-opacity="1.000000" fill-rule="evenodd"/>
</svg>
