<svg width="24.000000" height="24.000000" viewBox="0 0 24 24" fill="none" xmlns="http://www.w3.org/2000/svg" xmlns:xlink="http://www.w3.org/1999/xlink">
	<desc>
			Created with Pixso.
	</desc>
	<defs>
		<clipPath id="clip14_640">
			<rect id="Icons/24px/Social/Behance" width="24.000000" height="24.000000" fill="white" fill-opacity="0"/>
		</clipPath>
	</defs>
	<rect id="Icons/24px/Social/Behance" width="24.000000" height="24.000000" fill="#FFFFFF" fill-opacity="0"/>
	<g clip-path="url(#clip14_640)">
		<path id="Vector" d="M1.73315 5.00159C1.53882 5.00159 1.35229 5.0835 1.21484 5.22937C1.07739 5.37512 1 5.57288 1 5.77917L1 18.2224C1 18.4286 1.07739 18.6263 1.21484 18.7722C1.35229 18.9181 1.53882 19 1.73315 19L7.31274 19C7.61499 18.9995 8.67725 18.9722 9.77441 18.4259C10.8716 17.8796 11.9985 16.6511 11.9985 14.6654C11.9985 13.4058 11.6094 12.4572 11.0876 11.833C10.8691 11.5718 10.6653 11.5425 10.4346 11.3818C10.8757 10.8345 11.2651 10.0936 11.2651 8.88965C11.2651 7.03687 10.3083 5.88696 9.32471 5.41919C8.34106 4.95154 7.32959 5.00159 7.08057 5.00159L1.73315 5.00159ZM15.6646 5.00159C15.5674 5.00012 15.4709 5.01917 15.3809 5.05762C15.2905 5.09595 15.2085 5.15308 15.1394 5.22534C15.0701 5.29773 15.0151 5.38391 14.9778 5.479C14.9402 5.5741 14.9209 5.67615 14.9209 5.77917C14.9209 5.8822 14.9402 5.98425 14.9778 6.07935C15.0151 6.17444 15.0701 6.26062 15.1394 6.33289C15.2085 6.40527 15.2905 6.4624 15.3809 6.50073C15.4709 6.53918 15.5674 6.55823 15.6646 6.55676L20.064 6.55676C20.1611 6.55823 20.2576 6.53918 20.3477 6.50073C20.438 6.4624 20.52 6.40527 20.5891 6.33289C20.6584 6.26062 20.7134 6.17444 20.7507 6.07935C20.7883 5.98425 20.8076 5.8822 20.8076 5.77917C20.8076 5.67615 20.7883 5.5741 20.7507 5.479C20.7134 5.38391 20.6584 5.29773 20.5891 5.22534C20.52 5.15308 20.438 5.09595 20.3477 5.05762C20.2576 5.01917 20.1611 5.00012 20.064 5.00159L15.6646 5.00159ZM2.46655 6.55676L7.08057 6.55676C7.41235 6.55676 8.12769 6.55383 8.72461 6.83777C9.32153 7.12158 9.79883 7.52771 9.79883 8.88965C9.79883 10.3483 9.2688 10.6282 8.95386 10.8002C8.82617 10.8701 8.72095 10.9781 8.65063 11.111C8.58057 11.2438 8.54858 11.3955 8.55908 11.5474C8.56934 11.6992 8.62158 11.8445 8.70898 11.9652C8.79639 12.0858 8.91553 12.1766 9.05127 12.2263C9.32837 12.3271 9.69873 12.515 9.99072 12.8641C10.2825 13.2134 10.532 13.7253 10.532 14.6654C10.532 16.0887 9.91406 16.6383 9.15137 17.0181C8.38892 17.3977 7.4751 17.4445 7.31274 17.4448L2.46655 17.4448L2.46655 6.55676ZM17.8643 7.33435C17.1953 7.33435 15.9707 7.47534 14.8311 8.30481C13.6917 9.1344 12.7317 10.7087 12.7317 13.1664C12.7317 15.4552 13.6179 17.011 14.7322 17.8853C15.8467 18.7594 17.1096 18.9985 17.9888 18.9985C19.8506 18.9985 21.167 18.3274 21.9558 17.3734C22.6841 16.4923 22.9253 15.4529 22.9624 14.5637C22.9824 14.4978 22.9939 14.4293 22.9968 14.3602C22.9971 14.3535 22.9951 14.3456 22.9954 14.3389L22.9968 14.3329C22.9966 14.307 22.9951 14.2811 22.9927 14.2554L22.9927 14.2523C23.0325 12.8469 22.9299 11.2227 22.2222 9.83276C21.4971 8.40894 20.0396 7.33435 17.8643 7.33435ZM4.66626 8.11194L4.66626 10.4448L6.58667 10.4448C6.84839 10.4448 7.7207 10.2695 7.7207 9.22827C7.7207 8.18628 6.58569 8.11194 6.41187 8.11194L4.66626 8.11194ZM17.8643 8.88965C19.6301 8.88965 20.418 9.5647 20.9304 10.5709C21.3455 11.3859 21.4714 12.4808 21.4961 13.5552L19.3308 13.5552L16.3977 13.5552C16.2034 13.5553 16.0168 13.6372 15.8794 13.783C15.7419 13.9288 15.6646 14.1266 15.6646 14.3329C15.6646 14.3329 15.6709 14.5292 15.7249 14.7004C15.7786 14.8716 15.8845 15.0826 16.0627 15.2715C16.4189 15.6492 17.0088 15.8881 17.8643 15.8881C18.7197 15.8881 19.3098 15.6492 19.6658 15.2715C19.7161 15.2181 19.7227 15.1659 19.7617 15.1105L21.4143 15.1105C21.3167 15.5419 21.1599 15.9756 20.853 16.3467C20.356 16.948 19.5352 17.4432 17.9888 17.4432C17.3811 17.4432 16.3801 17.2438 15.6045 16.6353C14.8289 16.0267 14.1982 15.0557 14.1982 13.1664C14.1982 11.1085 14.8804 10.1555 15.6616 9.58667C16.4431 9.01794 17.418 8.88965 17.8643 8.88965ZM17.9272 10.135C17.4939 10.135 17.1826 10.1936 16.9348 10.3142C16.687 10.434 16.5024 10.6152 16.3162 10.7957C16.1924 10.9761 16.0676 11.1575 16.0054 11.3986C15.9431 11.579 15.8816 11.7596 15.8823 12.0016L19.8477 12.0016C19.7854 11.3989 19.5994 10.9174 19.2893 10.6165C18.9797 10.3154 18.5469 10.135 17.9272 10.135ZM4.69043 12.7776L4.69043 15.8729L6.83862 15.8729C7.0249 15.8729 8.33228 15.7966 8.33228 14.3829C8.33228 12.9678 7.30493 12.7776 6.83862 12.7776L4.69043 12.7776Z" fill="#1859E7" fill-opacity="1.000000" fill-rule="nonzero"/>
	</g>
</svg>
