<svg width="24.000000" height="24.000000" viewBox="0 0 24 24" fill="none" xmlns="http://www.w3.org/2000/svg" xmlns:xlink="http://www.w3.org/1999/xlink">
	<desc>
			Created with Pixso.
	</desc>
	<defs/>
	<path id="Union" d="M6 2C4.89551 2 4 2.89539 4 4L4 20C4 21.1046 4.89551 22 6 22L18 22C19.1045 22 20 21.1046 20 20L20 8.40051C20 7.86035 19.7815 7.34314 19.394 6.96655L14.8679 2.56604C14.4946 2.203 13.9944 2 13.4736 2L6 2ZM6 20.5L18 20.5Q18.1035 20.5 18.1919 20.4634L18.1919 20.4634L18.1919 20.4634Q18.2803 20.4268 18.3535 20.3535Q18.4268 20.2804 18.4634 20.1923L18.4634 20.1919Q18.5 20.1035 18.5 20L18.5 8.40051Q18.5 8.29492 18.4622 8.20544L18.4622 8.20532L18.4622 8.20532Q18.4243 8.1156 18.3486 8.04199L13.8223 3.64148Q13.7495 3.5708 13.6624 3.5354L13.6624 3.53528Q13.5752 3.5 13.4736 3.5L6 3.5Q5.89648 3.5 5.80811 3.53662L5.80811 3.53662Q5.71973 3.57324 5.64648 3.64648Q5.57324 3.7196 5.53662 3.80811L5.53662 3.80811L5.53662 3.80811Q5.5 3.89648 5.5 4L5.5 20Q5.5 20.1034 5.53662 20.1918L5.53662 20.1919Q5.57324 20.2803 5.64648 20.3535Q5.71948 20.4266 5.80786 20.4633L5.80811 20.4634L5.80811 20.4634Q5.89648 20.5 6 20.5ZM8 9L16 9L16 10.5L8 10.5L8 9ZM16 12.25L8 12.25L8 13.75L16 13.75L16 12.25ZM16 15.5L8 15.5L8 17L16 17L16 15.5Z" clip-rule="evenodd" fill="#1859E7" fill-opacity="1.000000" fill-rule="evenodd"/>
</svg>
