<svg width="24.000000" height="24.000000" viewBox="0 0 24 24" fill="none" xmlns="http://www.w3.org/2000/svg" xmlns:xlink="http://www.w3.org/1999/xlink">
	<desc>
			Created with Pixso.
	</desc>
	<defs/>
	<path id="Union" d="M3 4C2.44775 4 2 4.44775 2 5L2 17C2 18.6569 3.34326 20 5 20L19 20C20.6567 20 22 18.6569 22 17L22 5C22 4.44775 21.5522 4 21 4L3 4ZM20.4353 5.5L3.5647 5.5L12 13.2031L20.4353 5.5ZM3.5 7.47229L3.5 17Q3.5 17.1859 3.54321 17.3612L3.54321 17.3612Q3.57129 17.4746 3.61719 17.5834Q3.66724 17.7013 3.73511 17.8075L3.73511 17.8075L3.73511 17.8076Q3.82227 17.9437 3.93945 18.0607Q4.05615 18.1775 4.19214 18.2646L4.19238 18.2648Q4.29858 18.3329 4.4165 18.3827Q4.52539 18.4288 4.63892 18.4568Q4.81421 18.5 5 18.5L19 18.5Q19.1858 18.5 19.3611 18.4568L19.3611 18.4568Q19.4746 18.4288 19.5835 18.3827Q19.7014 18.3329 19.8076 18.2648L19.8076 18.2648Q19.9438 18.1776 20.0605 18.0607Q20.1777 17.9436 20.2649 17.8075L20.2649 17.8075Q20.333 17.7013 20.3828 17.5834Q20.4287 17.4746 20.4568 17.3613L20.4568 17.3608Q20.5 17.1858 20.5 17L20.5 7.47229L12.5059 14.7726Q12.291 14.9688 12 14.9688Q11.709 14.9688 11.4941 14.7726L3.5 7.47229Z" clip-rule="evenodd" fill="#1859E7" fill-opacity="1.000000" fill-rule="evenodd"/>
</svg>
