<svg width="33" height="32" viewBox="0 0 33 32" fill="none" xmlns="http://www.w3.org/2000/svg">
<g id="calendar-event">
<path id="Vector" d="M21.9995 4V9.33333M11.3328 4V9.33333M5.99951 14.6667H27.3328M5.99951 9.33333C5.99951 8.62609 6.28046 7.94781 6.78056 7.44772C7.28066 6.94762 7.95893 6.66667 8.66618 6.66667H24.6662C25.3734 6.66667 26.0517 6.94762 26.5518 7.44772C27.0519 7.94781 27.3328 8.62609 27.3328 9.33333V25.3333C27.3328 26.0406 27.0519 26.7189 26.5518 27.219C26.0517 27.719 25.3734 28 24.6662 28H8.66618C7.95893 28 7.28066 27.719 6.78056 27.219C6.28046 26.7189 5.99951 26.0406 5.99951 25.3333V9.33333ZM11.3328 20H13.9995V22.6667H11.3328V20Z" stroke="#1859E7" stroke-width="2" stroke-linecap="round" stroke-linejoin="round"/>
</g>
</svg>
