<svg width="32" height="32" viewBox="0 0 32 32" fill="none" xmlns="http://www.w3.org/2000/svg">
<g id="clock-play">
<path id="Vector" d="M16.0002 9.33331V16L18.6668 18.6666M17.3562 27.924C14.8467 28.2092 12.3111 27.6954 10.1107 26.4556C7.91022 25.2159 6.15703 23.3134 5.10077 21.0192C4.04452 18.7251 3.73906 16.1561 4.22789 13.6782C4.71673 11.2003 5.97493 8.93978 7.82332 7.21862C9.67171 5.49745 12.016 4.40337 14.5225 4.09218C17.0289 3.78099 19.5696 4.26857 21.7828 5.48547C23.9959 6.70237 25.7687 8.58655 26.8487 10.8697C27.9286 13.1528 28.2606 15.7185 27.7975 18.2013M22.6668 29.3333L29.3335 25.3333L22.6668 21.3333V29.3333Z" stroke="#1859E7" stroke-width="2" stroke-linecap="round" stroke-linejoin="round"/>
</g>
</svg>
