<svg width="32" height="32" viewBox="0 0 32 32" fill="none" xmlns="http://www.w3.org/2000/svg">
<g id="article">
<path id="Vector" d="M9.33333 10.6667H22.6667M9.33333 16H22.6667M9.33333 21.3334H22.6667M4 8.00004C4 7.2928 4.28095 6.61452 4.78105 6.11442C5.28115 5.61433 5.95942 5.33337 6.66667 5.33337H25.3333C26.0406 5.33337 26.7189 5.61433 27.219 6.11442C27.719 6.61452 28 7.2928 28 8.00004V24C28 24.7073 27.719 25.3856 27.219 25.8857C26.7189 26.3858 26.0406 26.6667 25.3333 26.6667H6.66667C5.95942 26.6667 5.28115 26.3858 4.78105 25.8857C4.28095 25.3856 4 24.7073 4 24V8.00004Z" stroke="#1859E7" stroke-width="2" stroke-linecap="round" stroke-linejoin="round"/>
</g>
</svg>
